<svg width="23" height="23" viewBox="0 0 23 23" fill="none" xmlns="http://www.w3.org/2000/svg">
<path d="M15.6875 19H5.43749C4.75787 19 4.10609 18.73 3.62553 18.2495C3.14497 17.7689 2.87499 17.1171 2.87499 16.4375V6.18749C2.87499 5.73441 3.05498 5.29989 3.37535 4.97952C3.69572 4.65914 4.13025 4.47916 4.58332 4.47916H6.29166V2.77082C6.29166 2.54428 6.38165 2.32702 6.54184 2.16684C6.70203 2.00665 6.91929 1.91666 7.14583 1.91666C7.37236 1.91666 7.58963 2.00665 7.74981 2.16684C7.91 2.32702 7.99999 2.54428 7.99999 2.77082V4.47916H13.125V2.77082C13.125 2.54428 13.215 2.32702 13.3752 2.16684C13.5354 2.00665 13.7526 1.91666 13.9792 1.91666C14.2057 1.91666 14.423 2.00665 14.5832 2.16684C14.7433 2.32702 14.8333 2.54428 14.8333 2.77082V4.47916H16.5417C16.9947 4.47916 17.4293 4.65914 17.7496 4.97952C18.07 5.29989 18.25 5.73441 18.25 6.18749V16.4375C18.25 17.1171 17.98 17.7689 17.4995 18.2495C17.0189 18.73 16.3671 19 15.6875 19ZM16.5417 10.8854C16.5417 10.7721 16.4967 10.6635 16.4166 10.5834C16.3365 10.5033 16.2279 10.4583 16.1146 10.4583H5.01041C4.89714 10.4583 4.78851 10.5033 4.70841 10.5834C4.62832 10.6635 4.58332 10.7721 4.58332 10.8854V16.4375C4.58332 16.664 4.67332 16.8813 4.8335 17.0415C4.99369 17.2017 5.21095 17.2917 5.43749 17.2917H15.6875C15.914 17.2917 16.1313 17.2017 16.2915 17.0415C16.4517 16.8813 16.5417 16.664 16.5417 16.4375V10.8854Z" fill="#15416F"/>
</svg>
