<svg width="14" height="14" viewBox="0 0 14 14" fill="none" xmlns="http://www.w3.org/2000/svg">
<path d="M7.00036 11.3001C5.9562 11.3001 4.912 10.9035 4.11283 10.1043C2.52033 8.51179 2.52033 5.92179 4.11283 4.32926C5.70533 2.73676 8.29536 2.73676 9.88786 4.32926C11.4804 5.92179 11.4804 8.51179 9.88786 10.1043C9.08869 10.9035 8.04453 11.3001 7.00036 11.3001ZM7.00036 4.00844C6.17786 4.00844 5.35533 4.32343 4.73117 4.9476C3.48283 6.20179 3.48283 8.23179 4.73117 9.48595C5.98536 10.7401 8.02119 10.7343 9.26953 9.48595C10.5179 8.23179 10.5179 6.20179 9.26953 4.9476C8.64536 4.32343 7.82286 4.00844 7.00036 4.00844Z" fill="#1D5BA4"/>
<path d="M4.81212 13.0618C4.75962 13.0618 4.70128 13.0501 4.64878 13.0326C3.33628 12.5076 2.27461 11.5801 1.56294 10.3551C0.874611 9.15931 0.600444 7.80598 0.781278 6.42931C0.810444 6.19015 1.03211 6.02098 1.27128 6.05014C1.51044 6.07931 1.67961 6.30098 1.65044 6.54014C1.49877 7.71848 1.73212 8.88515 2.32129 9.91181C2.92796 10.9618 3.84378 11.761 4.96961 12.2101C5.19128 12.3035 5.30212 12.5543 5.21462 12.7818C5.15045 12.9568 4.98128 13.0618 4.81212 13.0618Z" fill="#1D5BA4"/>
<path d="M3.41276 3.05136C3.28443 3.05136 3.1561 2.99304 3.0686 2.88221C2.91693 2.68971 2.95193 2.41555 3.14443 2.26971C4.2586 1.40055 5.5886 0.939697 7.00026 0.939697C8.37692 0.939697 9.68942 1.38304 10.7919 2.22304C10.9844 2.36888 11.0194 2.64303 10.8736 2.83553C10.7278 3.02803 10.4536 3.06304 10.2611 2.91721C9.31609 2.19388 8.19026 1.8147 7.00026 1.8147C5.78693 1.8147 4.63776 2.21138 3.68109 2.95805C3.59942 3.02221 3.5061 3.05136 3.41276 3.05136Z" fill="#1D5BA4"/>
<path d="M9.18855 13.0617C9.01355 13.0617 8.85022 12.9567 8.78022 12.7875C8.69272 12.5659 8.79772 12.3092 9.02522 12.2159C10.1511 11.7609 11.0669 10.9675 11.6736 9.91755C12.2686 8.89088 12.5019 7.72422 12.3444 6.54588C12.3152 6.30672 12.4844 6.08505 12.7236 6.05588C12.9569 6.02672 13.1844 6.19588 13.2136 6.43505C13.3886 7.80588 13.1202 9.16505 12.4319 10.3609C11.7261 11.5859 10.6586 12.5075 9.34605 13.0384C9.29939 13.05 9.24689 13.0617 9.18855 13.0617Z" fill="#1D5BA4"/>
</svg>
